<?xml version="1.0" encoding="UTF-8" standalone="no"?>
<!DOCTYPE svg PUBLIC "-//W3C//DTD SVG 20010904//EN"
              "http://www.w3.org/TR/2001/REC-SVG-20010904/DTD/svg10.dtd">

<svg xmlns="http://www.w3.org/2000/svg"
     width="11.4722in" height="10.5972in"
     viewBox="0 0 826 763">
  <path id="Selection #2"
        fill="none" stroke="black" stroke-width="1"
        d="M 0.00,0.00
           C 0.00,0.00 826.00,0.00 826.00,0.00
             826.00,0.00 826.00,763.00 826.00,763.00
             826.00,763.00 0.00,763.00 0.00,763.00
             0.00,763.00 0.00,0.00 0.00,0.00 Z
           M 438.00,12.00
           C 438.00,12.00 422.00,11.00 422.00,11.00
             422.00,11.00 407.00,11.00 407.00,11.00
             353.93,11.08 295.43,25.55 248.00,49.27
             146.72,99.91 75.35,194.25 53.20,305.00
             50.37,319.17 48.07,333.59 47.00,348.00
             47.00,348.00 47.00,356.00 47.00,356.00
             47.00,356.00 46.00,366.00 46.00,366.00
             45.31,424.95 54.99,471.75 78.00,526.00
             78.00,526.00 116.00,509.86 116.00,509.86
             116.00,509.86 203.00,470.69 203.00,470.69
             203.00,470.69 246.00,452.00 246.00,452.00
             241.15,456.84 234.10,458.90 228.00,461.78
             228.00,461.78 195.00,477.31 195.00,477.31
             195.00,477.31 81.00,531.00 81.00,531.00
             84.42,542.73 101.86,571.29 109.28,582.00
             136.02,620.60 166.83,652.50 206.00,678.67
             245.98,705.37 287.02,723.20 334.00,733.58
             347.33,736.52 374.74,740.84 388.00,741.00
             388.00,741.00 418.00,742.00 418.00,742.00
             418.00,742.00 435.00,741.00 435.00,741.00
             449.75,740.82 474.32,736.66 489.00,733.42
             549.29,720.11 602.98,693.77 650.00,653.57
             678.87,628.89 703.63,599.33 723.54,567.00
             760.58,506.84 777.11,439.16 777.00,369.00
             777.00,369.00 776.00,354.00 776.00,354.00
             775.77,334.35 770.68,306.23 765.87,287.00
             765.87,287.00 761.42,271.00 761.42,271.00
             760.85,269.11 760.26,266.20 758.49,265.06
             755.95,263.44 749.81,266.05 747.00,266.86
             747.00,266.86 715.00,277.33 715.00,277.33
             715.00,277.33 624.00,307.00 624.00,307.00
             624.00,307.00 585.00,320.00 585.00,320.00
             588.94,315.85 593.69,315.10 599.00,313.33
             599.00,313.33 623.00,305.00 623.00,305.00
             623.00,305.00 715.00,274.00 715.00,274.00
             715.00,274.00 745.00,264.00 745.00,264.00
             747.43,263.19 754.66,261.24 755.76,259.30
             757.20,257.48 756.20,254.85 755.76,253.00
             755.76,253.00 750.20,239.00 750.20,239.00
             742.24,219.17 731.71,199.13 720.42,181.00
             684.41,123.18 628.97,74.07 567.00,45.69
             549.87,37.85 526.25,28.12 508.00,24.00
             508.00,24.00 490.86,86.00 490.86,86.00
             488.95,92.75 486.41,107.28 482.00,112.00
             482.00,112.00 496.42,57.00 496.42,57.00
             496.42,57.00 505.00,23.00 505.00,23.00
             505.00,23.00 491.00,19.66 491.00,19.66
             491.00,19.66 468.00,15.43 468.00,15.43
             468.00,15.43 440.00,12.00 440.00,12.00
             440.00,12.00 438.00,23.00 438.00,23.00
             438.00,23.00 438.00,12.00 438.00,12.00 Z" />
</svg>
